<mxfile host="65bd71144e">
    <diagram id="Rf7zDavLUJziFzLalgrN" name="Page-1">
        <mxGraphModel dx="823" dy="725" grid="1" gridSize="10" guides="1" tooltips="1" connect="1" arrows="1" fold="1" page="1" pageScale="1" pageWidth="827" pageHeight="1169" math="0" shadow="0">
            <root>
                <mxCell id="0"/>
                <mxCell id="1" parent="0"/>
                <mxCell id="5" value="" style="edgeStyle=none;html=1;" parent="1" source="3" target="4" edge="1">
                    <mxGeometry relative="1" as="geometry"/>
                </mxCell>
                <mxCell id="7" value="修改commit信息" style="edgeLabel;html=1;align=center;verticalAlign=middle;resizable=0;points=[];" parent="5" vertex="1" connectable="0">
                    <mxGeometry x="-0.2049" y="-2" relative="1" as="geometry">
                        <mxPoint as="offset"/>
                    </mxGeometry>
                </mxCell>
                <mxCell id="9" value="" style="edgeStyle=none;html=1;" parent="1" source="3" target="8" edge="1">
                    <mxGeometry relative="1" as="geometry"/>
                </mxCell>
                <mxCell id="11" value="配置" style="edgeLabel;html=1;align=center;verticalAlign=middle;resizable=0;points=[];" parent="9" vertex="1" connectable="0">
                    <mxGeometry x="-0.1125" relative="1" as="geometry">
                        <mxPoint as="offset"/>
                    </mxGeometry>
                </mxCell>
                <mxCell id="18" style="edgeStyle=none;html=1;exitX=1;exitY=0.75;exitDx=0;exitDy=0;entryX=0;entryY=0.25;entryDx=0;entryDy=0;" parent="1" source="3" target="17" edge="1">
                    <mxGeometry relative="1" as="geometry"/>
                </mxCell>
                <mxCell id="19" value="配置指令别名" style="edgeLabel;html=1;align=center;verticalAlign=middle;resizable=0;points=[];" parent="18" vertex="1" connectable="0">
                    <mxGeometry x="0.0014" y="2" relative="1" as="geometry">
                        <mxPoint as="offset"/>
                    </mxGeometry>
                </mxCell>
                <mxCell id="23" value="" style="edgeStyle=none;html=1;" parent="1" source="3" target="22" edge="1">
                    <mxGeometry relative="1" as="geometry"/>
                </mxCell>
                <mxCell id="24" value="忽略文件" style="edgeLabel;html=1;align=center;verticalAlign=middle;resizable=0;points=[];" parent="23" vertex="1" connectable="0">
                    <mxGeometry x="-0.0273" y="4" relative="1" as="geometry">
                        <mxPoint as="offset"/>
                    </mxGeometry>
                </mxCell>
                <mxCell id="3" value="git" style="rounded=1;whiteSpace=wrap;html=1;" parent="1" vertex="1">
                    <mxGeometry x="50" y="150" width="120" height="60" as="geometry"/>
                </mxCell>
                <mxCell id="4" value="git commit --amend -m '新的操作说明' --author='操作者姓名&amp;nbsp; &amp;lt;email&amp;nbsp;邮箱&amp;gt;'" style="rounded=1;whiteSpace=wrap;html=1;" parent="1" vertex="1">
                    <mxGeometry x="190" y="20" width="440" height="60" as="geometry"/>
                </mxCell>
                <mxCell id="13" value="" style="edgeStyle=none;html=1;" parent="1" source="8" target="12" edge="1">
                    <mxGeometry relative="1" as="geometry"/>
                </mxCell>
                <mxCell id="14" style="edgeStyle=none;html=1;exitX=1;exitY=0.5;exitDx=0;exitDy=0;" parent="1" source="8" edge="1">
                    <mxGeometry relative="1" as="geometry">
                        <mxPoint x="540" y="230" as="targetPoint"/>
                    </mxGeometry>
                </mxCell>
                <mxCell id="16" value="删除配置" style="edgeLabel;html=1;align=center;verticalAlign=middle;resizable=0;points=[];" parent="14" vertex="1" connectable="0">
                    <mxGeometry x="-0.2016" y="-1" relative="1" as="geometry">
                        <mxPoint y="-1" as="offset"/>
                    </mxGeometry>
                </mxCell>
                <mxCell id="8" value="git config --global user.name '姓名'&lt;br&gt;git config --global user.email 'email'" style="rounded=1;whiteSpace=wrap;html=1;" parent="1" vertex="1">
                    <mxGeometry x="250" y="150" width="230" height="60" as="geometry"/>
                </mxCell>
                <mxCell id="12" value="--global/--system" style="rounded=1;whiteSpace=wrap;html=1;" parent="1" vertex="1">
                    <mxGeometry x="550" y="110" width="140" height="60" as="geometry"/>
                </mxCell>
                <mxCell id="15" value="git config --unset user.name&lt;br&gt;删除指令别名con&lt;br&gt;git config --unset alias.con" style="rounded=1;whiteSpace=wrap;html=1;" parent="1" vertex="1">
                    <mxGeometry x="540" y="200" width="190" height="60" as="geometry"/>
                </mxCell>
                <mxCell id="21" value="" style="edgeStyle=none;html=1;" parent="1" source="17" target="15" edge="1">
                    <mxGeometry relative="1" as="geometry"/>
                </mxCell>
                <mxCell id="17" value="git config alias.指令别名 '正式的指令和选项'" style="rounded=1;whiteSpace=wrap;html=1;" parent="1" vertex="1">
                    <mxGeometry x="200" y="260" width="260" height="60" as="geometry"/>
                </mxCell>
                <mxCell id="22" value=".gitignore&lt;br&gt;#表示注释&lt;br&gt;/表示文件夹路径&lt;br&gt;*表示文件名通配符&lt;br&gt;!表示排除" style="rounded=1;whiteSpace=wrap;html=1;" parent="1" vertex="1">
                    <mxGeometry x="170" y="380" width="150" height="90" as="geometry"/>
                </mxCell>
                <mxCell id="27" value="" style="edgeStyle=none;html=1;" parent="1" source="25" target="26" edge="1">
                    <mxGeometry relative="1" as="geometry"/>
                </mxCell>
                <mxCell id="56" value="" style="edgeStyle=none;html=1;" parent="1" source="25" target="55" edge="1">
                    <mxGeometry relative="1" as="geometry"/>
                </mxCell>
                <mxCell id="57" value="查看commit节点信息" style="edgeLabel;html=1;align=center;verticalAlign=middle;resizable=0;points=[];" parent="56" vertex="1" connectable="0">
                    <mxGeometry x="-0.24" y="-3" relative="1" as="geometry">
                        <mxPoint as="offset"/>
                    </mxGeometry>
                </mxCell>
                <mxCell id="118" style="edgeStyle=none;html=1;exitX=0.75;exitY=1;exitDx=0;exitDy=0;entryX=0;entryY=0;entryDx=0;entryDy=0;" parent="1" source="25" target="117" edge="1">
                    <mxGeometry relative="1" as="geometry"/>
                </mxCell>
                <mxCell id="119" value="重命名文件" style="edgeLabel;html=1;align=center;verticalAlign=middle;resizable=0;points=[];" parent="118" vertex="1" connectable="0">
                    <mxGeometry x="-0.0845" relative="1" as="geometry">
                        <mxPoint as="offset"/>
                    </mxGeometry>
                </mxCell>
                <mxCell id="25" value="git基本操作" style="rounded=1;whiteSpace=wrap;html=1;" parent="1" vertex="1">
                    <mxGeometry x="60" y="585" width="120" height="60" as="geometry"/>
                </mxCell>
                <mxCell id="29" value="" style="edgeStyle=none;html=1;" parent="1" source="26" target="28" edge="1">
                    <mxGeometry relative="1" as="geometry"/>
                </mxCell>
                <mxCell id="34" style="edgeStyle=none;html=1;exitX=0.75;exitY=1;exitDx=0;exitDy=0;entryX=0;entryY=0.5;entryDx=0;entryDy=0;" parent="1" source="26" target="33" edge="1">
                    <mxGeometry relative="1" as="geometry"/>
                </mxCell>
                <mxCell id="35" value="add之后要回退" style="edgeLabel;html=1;align=center;verticalAlign=middle;resizable=0;points=[];" parent="34" vertex="1" connectable="0">
                    <mxGeometry x="-0.1941" y="1" relative="1" as="geometry">
                        <mxPoint as="offset"/>
                    </mxGeometry>
                </mxCell>
                <mxCell id="43" value="" style="edgeStyle=none;html=1;" parent="1" source="26" target="42" edge="1">
                    <mxGeometry relative="1" as="geometry"/>
                </mxCell>
                <mxCell id="44" value="丢弃更改" style="edgeLabel;html=1;align=center;verticalAlign=middle;resizable=0;points=[];" parent="43" vertex="1" connectable="0">
                    <mxGeometry x="-0.0707" relative="1" as="geometry">
                        <mxPoint as="offset"/>
                    </mxGeometry>
                </mxCell>
                <mxCell id="26" value="git add&amp;nbsp; -A" style="rounded=1;whiteSpace=wrap;html=1;" parent="1" vertex="1">
                    <mxGeometry x="260" y="585" width="120" height="60" as="geometry"/>
                </mxCell>
                <mxCell id="28" value="git commit -m" style="rounded=1;whiteSpace=wrap;html=1;" parent="1" vertex="1">
                    <mxGeometry x="460" y="585" width="120" height="60" as="geometry"/>
                </mxCell>
                <mxCell id="31" value="加入Git索引" style="text;html=1;strokeColor=none;fillColor=none;align=center;verticalAlign=middle;whiteSpace=wrap;rounded=0;" parent="1" vertex="1">
                    <mxGeometry x="275" y="555" width="90" height="30" as="geometry"/>
                </mxCell>
                <mxCell id="32" value="将Git索引中的文档加入文档库" style="text;html=1;strokeColor=none;fillColor=none;align=center;verticalAlign=middle;whiteSpace=wrap;rounded=0;" parent="1" vertex="1">
                    <mxGeometry x="435" y="550" width="170" height="30" as="geometry"/>
                </mxCell>
                <mxCell id="37" value="" style="edgeStyle=none;html=1;" parent="1" source="33" target="36" edge="1">
                    <mxGeometry relative="1" as="geometry"/>
                </mxCell>
                <mxCell id="41" value="" style="edgeStyle=none;html=1;" parent="1" source="33" target="40" edge="1">
                    <mxGeometry relative="1" as="geometry"/>
                </mxCell>
                <mxCell id="33" value="情况2:有commit过的库" style="rounded=1;whiteSpace=wrap;html=1;" parent="1" vertex="1">
                    <mxGeometry x="470" y="800" width="170" height="60" as="geometry"/>
                </mxCell>
                <mxCell id="39" value="" style="edgeStyle=none;html=1;" parent="1" source="36" target="38" edge="1">
                    <mxGeometry relative="1" as="geometry"/>
                </mxCell>
                <mxCell id="36" value="情况1:空白git，没有commit过" style="whiteSpace=wrap;html=1;rounded=1;" parent="1" vertex="1">
                    <mxGeometry x="470" y="700" width="170" height="60" as="geometry"/>
                </mxCell>
                <mxCell id="50" style="edgeStyle=none;html=1;exitX=0.75;exitY=0;exitDx=0;exitDy=0;entryX=0;entryY=0.5;entryDx=0;entryDy=0;" parent="1" source="38" target="48" edge="1">
                    <mxGeometry relative="1" as="geometry"/>
                </mxCell>
                <mxCell id="54" style="edgeStyle=none;html=1;exitX=1;exitY=0.5;exitDx=0;exitDy=0;entryX=0;entryY=0.5;entryDx=0;entryDy=0;" parent="1" source="38" target="53" edge="1">
                    <mxGeometry relative="1" as="geometry"/>
                </mxCell>
                <mxCell id="38" value="git rm --cached 文件名" style="whiteSpace=wrap;html=1;rounded=1;" parent="1" vertex="1">
                    <mxGeometry x="720" y="700" width="170" height="60" as="geometry"/>
                </mxCell>
                <mxCell id="72" value="" style="edgeStyle=none;html=1;" parent="1" source="40" target="71" edge="1">
                    <mxGeometry relative="1" as="geometry"/>
                </mxCell>
                <mxCell id="40" value="git reset HEAD 文件名" style="rounded=1;whiteSpace=wrap;html=1;" parent="1" vertex="1">
                    <mxGeometry x="720" y="800" width="170" height="60" as="geometry"/>
                </mxCell>
                <mxCell id="42" value="git restore 文件名&amp;nbsp;" style="rounded=1;whiteSpace=wrap;html=1;" parent="1" vertex="1">
                    <mxGeometry x="260" y="760" width="120" height="60" as="geometry"/>
                </mxCell>
                <mxCell id="48" value="&lt;span&gt;谨慎使用rm&lt;/span&gt;&lt;br&gt;&lt;span&gt;如果要删除文件&lt;/span&gt;&lt;br&gt;&lt;span&gt;1:先在文件夹中删除文件&lt;/span&gt;&lt;br&gt;&lt;span&gt;2:执行git add -A&lt;/span&gt;&lt;br&gt;&lt;span&gt;3:执行git commit&lt;/span&gt;" style="shape=document;whiteSpace=wrap;html=1;boundedLbl=1;" parent="1" vertex="1">
                    <mxGeometry x="890" y="520" width="210" height="125" as="geometry"/>
                </mxCell>
                <mxCell id="53" value="cached表示不再追踪这个文件，但是没有从文档库中删除" style="rounded=1;whiteSpace=wrap;html=1;" parent="1" vertex="1">
                    <mxGeometry x="940" y="700" width="120" height="60" as="geometry"/>
                </mxCell>
                <mxCell id="134" style="edgeStyle=none;html=1;exitX=0.5;exitY=1;exitDx=0;exitDy=0;entryX=0.25;entryY=0;entryDx=0;entryDy=0;" parent="1" source="55" target="133" edge="1">
                    <mxGeometry relative="1" as="geometry"/>
                </mxCell>
                <mxCell id="135" value="其他选项" style="edgeLabel;html=1;align=center;verticalAlign=middle;resizable=0;points=[];" parent="134" vertex="1" connectable="0">
                    <mxGeometry x="0.1632" y="-1" relative="1" as="geometry">
                        <mxPoint as="offset"/>
                    </mxGeometry>
                </mxCell>
                <mxCell id="55" value="git log --graph/--oneline" style="rounded=1;whiteSpace=wrap;html=1;" parent="1" vertex="1">
                    <mxGeometry x="40" y="830" width="160" height="60" as="geometry"/>
                </mxCell>
                <mxCell id="60" value="" style="edgeStyle=none;html=1;" parent="1" source="58" target="59" edge="1">
                    <mxGeometry relative="1" as="geometry"/>
                </mxCell>
                <mxCell id="62" value="" style="edgeStyle=none;html=1;" parent="1" source="58" target="61" edge="1">
                    <mxGeometry relative="1" as="geometry"/>
                </mxCell>
                <mxCell id="63" style="edgeStyle=none;html=1;exitX=1;exitY=1;exitDx=0;exitDy=0;" parent="1" source="58" edge="1">
                    <mxGeometry relative="1" as="geometry">
                        <mxPoint x="310" y="1310" as="targetPoint"/>
                    </mxGeometry>
                </mxCell>
                <mxCell id="66" value="" style="edgeStyle=none;html=1;" parent="1" source="58" target="65" edge="1">
                    <mxGeometry relative="1" as="geometry"/>
                </mxCell>
                <mxCell id="67" value="给节点打标签" style="edgeLabel;html=1;align=center;verticalAlign=middle;resizable=0;points=[];" parent="66" vertex="1" connectable="0">
                    <mxGeometry x="0.0548" y="1" relative="1" as="geometry">
                        <mxPoint as="offset"/>
                    </mxGeometry>
                </mxCell>
                <mxCell id="105" style="edgeStyle=none;html=1;exitX=1;exitY=1;exitDx=0;exitDy=0;entryX=0;entryY=0;entryDx=0;entryDy=0;" parent="1" source="58" target="104" edge="1">
                    <mxGeometry relative="1" as="geometry"/>
                </mxCell>
                <mxCell id="106" value="在commit中查找包含某字符" style="edgeLabel;html=1;align=center;verticalAlign=middle;resizable=0;points=[];" parent="105" vertex="1" connectable="0">
                    <mxGeometry x="0.2215" y="-2" relative="1" as="geometry">
                        <mxPoint as="offset"/>
                    </mxGeometry>
                </mxCell>
                <mxCell id="58" value="commit节点信息" style="rhombus;whiteSpace=wrap;html=1;" parent="1" vertex="1">
                    <mxGeometry x="40" y="1190" width="150" height="90" as="geometry"/>
                </mxCell>
                <mxCell id="59" value="commit节点标识符是一串16进制数字，一般使用前4位即可，如果出错，多增加几位就好了" style="whiteSpace=wrap;html=1;" parent="1" vertex="1">
                    <mxGeometry x="240" y="1100" width="300" height="60" as="geometry"/>
                </mxCell>
                <mxCell id="61" value="HEAD节点可以使用@替代，HEAD~1可以写作@~1,HEAD^2可以写作@^2" style="whiteSpace=wrap;html=1;" parent="1" vertex="1">
                    <mxGeometry x="330" y="1205" width="410" height="60" as="geometry"/>
                </mxCell>
                <mxCell id="64" value="git show HEAD / git show commit节点 文件名" style="whiteSpace=wrap;html=1;" parent="1" vertex="1">
                    <mxGeometry x="320" y="1280" width="410" height="60" as="geometry"/>
                </mxCell>
                <mxCell id="69" value="" style="edgeStyle=none;html=1;" parent="1" source="65" target="68" edge="1">
                    <mxGeometry relative="1" as="geometry"/>
                </mxCell>
                <mxCell id="70" value="删除标签" style="edgeLabel;html=1;align=center;verticalAlign=middle;resizable=0;points=[];" parent="69" vertex="1" connectable="0">
                    <mxGeometry x="-0.0125" y="2" relative="1" as="geometry">
                        <mxPoint as="offset"/>
                    </mxGeometry>
                </mxCell>
                <mxCell id="65" value="git tag 自定义标签名 commit 节点标识符或者标签名" style="whiteSpace=wrap;html=1;" parent="1" vertex="1">
                    <mxGeometry y="1390" width="295" height="60" as="geometry"/>
                </mxCell>
                <mxCell id="68" value="git tag -d commit 节点标签" style="whiteSpace=wrap;html=1;" parent="1" vertex="1">
                    <mxGeometry x="55" y="1530" width="177.5" height="60" as="geometry"/>
                </mxCell>
                <mxCell id="71" value="git reset&amp;nbsp; 选项 commit 节点标识符或者标签&lt;br&gt;&lt;br&gt;选项包括：--soft、--mixed、--hard" style="rounded=1;whiteSpace=wrap;html=1;" parent="1" vertex="1">
                    <mxGeometry x="665" y="940" width="280" height="60" as="geometry"/>
                </mxCell>
                <mxCell id="81" style="edgeStyle=none;html=1;exitX=1;exitY=0.5;exitDx=0;exitDy=0;entryX=0;entryY=0.5;entryDx=0;entryDy=0;" parent="1" source="73" target="75" edge="1">
                    <mxGeometry relative="1" as="geometry"/>
                </mxCell>
                <mxCell id="82" style="edgeStyle=none;html=1;exitX=1;exitY=0.5;exitDx=0;exitDy=0;entryX=0;entryY=0.5;entryDx=0;entryDy=0;" parent="1" source="73" target="76" edge="1">
                    <mxGeometry relative="1" as="geometry"/>
                </mxCell>
                <mxCell id="83" style="edgeStyle=none;html=1;exitX=1;exitY=0.5;exitDx=0;exitDy=0;entryX=0;entryY=0.5;entryDx=0;entryDy=0;" parent="1" source="73" target="77" edge="1">
                    <mxGeometry relative="1" as="geometry"/>
                </mxCell>
                <mxCell id="73" value="比较文件的差异" style="rounded=1;whiteSpace=wrap;html=1;" parent="1" vertex="1">
                    <mxGeometry x="55" y="1850" width="120" height="60" as="geometry"/>
                </mxCell>
                <mxCell id="86" value="" style="edgeStyle=none;html=1;" parent="1" source="75" target="85" edge="1">
                    <mxGeometry relative="1" as="geometry"/>
                </mxCell>
                <mxCell id="91" value="" style="edgeStyle=none;html=1;" parent="1" source="75" target="85" edge="1">
                    <mxGeometry relative="1" as="geometry"/>
                </mxCell>
                <mxCell id="92" value="" style="edgeStyle=none;html=1;" parent="1" source="75" target="85" edge="1">
                    <mxGeometry relative="1" as="geometry"/>
                </mxCell>
                <mxCell id="94" style="edgeStyle=none;html=1;exitX=1;exitY=0.5;exitDx=0;exitDy=0;entryX=0;entryY=0.5;entryDx=0;entryDy=0;" parent="1" source="75" target="93" edge="1">
                    <mxGeometry relative="1" as="geometry"/>
                </mxCell>
                <mxCell id="75" value="文件没有add" style="shape=process;whiteSpace=wrap;html=1;backgroundOutline=1;" parent="1" vertex="1">
                    <mxGeometry x="260" y="1710" width="190" height="60" as="geometry"/>
                </mxCell>
                <mxCell id="88" value="" style="edgeStyle=none;html=1;" parent="1" source="76" target="87" edge="1">
                    <mxGeometry relative="1" as="geometry"/>
                </mxCell>
                <mxCell id="76" value="文件add，但是没有commit" style="shape=process;whiteSpace=wrap;html=1;backgroundOutline=1;" parent="1" vertex="1">
                    <mxGeometry x="260" y="1850" width="190" height="60" as="geometry"/>
                </mxCell>
                <mxCell id="90" value="" style="edgeStyle=none;html=1;" parent="1" source="77" target="89" edge="1">
                    <mxGeometry relative="1" as="geometry"/>
                </mxCell>
                <mxCell id="96" style="edgeStyle=none;html=1;exitX=1;exitY=0.5;exitDx=0;exitDy=0;entryX=0;entryY=0.5;entryDx=0;entryDy=0;" parent="1" source="77" target="95" edge="1">
                    <mxGeometry relative="1" as="geometry"/>
                </mxCell>
                <mxCell id="77" value="文件commit了" style="shape=process;whiteSpace=wrap;html=1;backgroundOutline=1;" parent="1" vertex="1">
                    <mxGeometry x="260" y="1990" width="190" height="60" as="geometry"/>
                </mxCell>
                <mxCell id="78" value="文件在文档库中" style="text;html=1;strokeColor=none;fillColor=none;align=center;verticalAlign=middle;whiteSpace=wrap;rounded=0;" parent="1" vertex="1">
                    <mxGeometry x="310" y="1960" width="100" height="30" as="geometry"/>
                </mxCell>
                <mxCell id="79" value="文件在Git索引中" style="text;html=1;strokeColor=none;fillColor=none;align=center;verticalAlign=middle;whiteSpace=wrap;rounded=0;" parent="1" vertex="1">
                    <mxGeometry x="300" y="1820" width="110" height="30" as="geometry"/>
                </mxCell>
                <mxCell id="80" value="文件在本地" style="text;html=1;strokeColor=none;fillColor=none;align=center;verticalAlign=middle;whiteSpace=wrap;rounded=0;" parent="1" vertex="1">
                    <mxGeometry x="330" y="1680" width="90" height="30" as="geometry"/>
                </mxCell>
                <mxCell id="85" value="git diff 文件名" style="whiteSpace=wrap;html=1;" parent="1" vertex="1">
                    <mxGeometry x="540" y="1660" width="120" height="60" as="geometry"/>
                </mxCell>
                <mxCell id="87" value="git diff --cached 文件名" style="whiteSpace=wrap;html=1;" parent="1" vertex="1">
                    <mxGeometry x="565" y="1850" width="155" height="60" as="geometry"/>
                </mxCell>
                <mxCell id="89" value="git diff commit 节点1 commit 节点2 文件名" style="whiteSpace=wrap;html=1;" parent="1" vertex="1">
                    <mxGeometry x="565" y="1960" width="245" height="60" as="geometry"/>
                </mxCell>
                <mxCell id="93" value="git diff --no-index 文件1 文件2" style="whiteSpace=wrap;html=1;" parent="1" vertex="1">
                    <mxGeometry x="540" y="1730" width="180" height="60" as="geometry"/>
                </mxCell>
                <mxCell id="95" value="git diff commit 节点 文件名" style="whiteSpace=wrap;html=1;" parent="1" vertex="1">
                    <mxGeometry x="565" y="2040" width="245" height="60" as="geometry"/>
                </mxCell>
                <mxCell id="99" value="" style="edgeStyle=none;html=1;" parent="1" source="97" target="98" edge="1">
                    <mxGeometry relative="1" as="geometry"/>
                </mxCell>
                <mxCell id="97" value="从文档库中取出文件" style="rounded=1;whiteSpace=wrap;html=1;" parent="1" vertex="1">
                    <mxGeometry x="50" y="2200" width="120" height="60" as="geometry"/>
                </mxCell>
                <mxCell id="98" value="git checkout commit节点标识符或者标签 文件1 文件2 ..." style="rounded=1;whiteSpace=wrap;html=1;" parent="1" vertex="1">
                    <mxGeometry x="260" y="2200" width="339" height="60" as="geometry"/>
                </mxCell>
                <mxCell id="108" value="" style="edgeStyle=none;html=1;" parent="1" source="104" target="107" edge="1">
                    <mxGeometry relative="1" as="geometry"/>
                </mxCell>
                <mxCell id="110" style="edgeStyle=none;html=1;exitX=1;exitY=0.5;exitDx=0;exitDy=0;entryX=0;entryY=0.5;entryDx=0;entryDy=0;" parent="1" source="104" target="109" edge="1">
                    <mxGeometry relative="1" as="geometry"/>
                </mxCell>
                <mxCell id="111" value="多个字符串or关系" style="edgeLabel;html=1;align=center;verticalAlign=middle;resizable=0;points=[];" parent="110" vertex="1" connectable="0">
                    <mxGeometry x="0.0364" y="-1" relative="1" as="geometry">
                        <mxPoint as="offset"/>
                    </mxGeometry>
                </mxCell>
                <mxCell id="113" style="edgeStyle=none;html=1;exitX=1;exitY=1;exitDx=0;exitDy=0;entryX=0;entryY=0.5;entryDx=0;entryDy=0;" parent="1" source="104" target="112" edge="1">
                    <mxGeometry relative="1" as="geometry"/>
                </mxCell>
                <mxCell id="114" value="多个字符串and关系" style="edgeLabel;html=1;align=center;verticalAlign=middle;resizable=0;points=[];" parent="113" vertex="1" connectable="0">
                    <mxGeometry x="-0.2204" y="-1" relative="1" as="geometry">
                        <mxPoint as="offset"/>
                    </mxGeometry>
                </mxCell>
                <mxCell id="104" value="git grep '要查找的字符'&amp;nbsp; commit节点&amp;nbsp;&amp;nbsp;" style="rhombus;whiteSpace=wrap;html=1;" parent="1" vertex="1">
                    <mxGeometry x="389.5" y="1410" width="360.5" height="140" as="geometry"/>
                </mxCell>
                <mxCell id="107" value="选项：-l只列文件、-c列出来有几个、-i忽略大小写" style="whiteSpace=wrap;html=1;" parent="1" vertex="1">
                    <mxGeometry x="827" y="1370" width="173" height="60" as="geometry"/>
                </mxCell>
                <mxCell id="109" value="git grep -e '字符串1' -e '字符串2' commit节点" style="whiteSpace=wrap;html=1;" parent="1" vertex="1">
                    <mxGeometry x="868.5" y="1490" width="263" height="60" as="geometry"/>
                </mxCell>
                <mxCell id="112" value="git grep -e '字符串1'&amp;nbsp; --and -e '字符串2' commit节点" style="whiteSpace=wrap;html=1;" parent="1" vertex="1">
                    <mxGeometry x="860" y="1600" width="300" height="60" as="geometry"/>
                </mxCell>
                <mxCell id="115" value="" style="shape=stencil(lZvdkhy3DYWfZm9ZzX/iWnbeQ1WWo63IkkpWEvvtc1gb9i4Ppw+370YrfEMSBAEQ4DzFD39+/vj901M4/vz549u/Pv33+befn5/iL08hPH/9/OnH8098eoq/PsUPv3/78emfP779++tvL//+/rFL9k9/fPtP/4a/XrjDHUeHwvH3yx/8cf7pHy/Al+evExBtAqw5H5V8ybN8dUdT8tZm+ey8kPfO0/cnF6V8ovkHV8V6vWthlvfu8NfywfkyyTdzUegnuBxn+eqymE9wbdZPy66J+UQX6PuTS1K+zOttGLFey6ehjVPeuxiUfJrnU82ZlP//6Kd8Gxb1UD67mGb5Oiz2Qr7NB6AW58V8yljdKY8ZFiVP9lOhYbG/dezOKR+k/TR30PfjBEn5PNt/MVfE/M2FeT6luSDl27y/BRoQ++UPPpAlu6QAP/zNCcAGkwQqjRBcUUAYHuQEvPYpYaj8BA4X1Bqiy/Ou5eZMWKnHEudjkKs8lgDKbNe5SLvzcLPzwcnnUboCyqylfE7yMVBcoCkF6boAVNKSd0VpCUedRjhcFsbqK3uXZC6rnW4uzVNKzVWlJexrZcArLRmfh1RdUVoyjpgAvNASQiyvAYoWUwJAZxpAFOaNoEk7DUCZBgDySilLL9/D7OyWUnIm9gFAMQa8irORE5cEa1UjJLbWBDWofchjxgOIJncasSHOuUWs0pHBGR+zacQ0zPFx8EfsmDcuhnGkHgOBnQDGrOIAYQJ5VitWpVxlLJxQhdNTPQYqR3RspTpx0Dqdh9ck8XFKAi3RGg6Z08Jy/DwCDq0KKAlZ2+w14EeKAtJIEt4AKo3B+Qo0pSpdZT/BiQGV+KfFe3udCcBt8aLLSBavgBoZULk5XG+YNw5BLKudbnweAEQ1grEjA3CINSBAUb6NyF1VfuvZvAEkYd75tP4TiGNVj4G0qDXKTACZRSK1BnmHQbJD8QE5mkpC85JVIm3MQq1I2BJdI4dxPZZHBkfXNmlJSDnDLK+zq57TzgvIY4KP5ctQ4BlMZMQtleWRYar5I4+ZTzMcudKPjeHPDZCBBJcQ30g+qVvPwYnYWQd4LO85gT7kLR6XqMNIPgn3CPncSD6o+USuoxwySEGernm66gL5yvqR35844mzmn9h+NvpJnLvoRLtmdhGb/SpcVjhk8gX5Zb+k/VTOKrwMl5Cv5c73Nz4vm/k39j8b/di6XqX/dnCZTO8v5Mud89I8pxNb+cr7K+XDOn+53sBxWOsT8os9q/1qkTMJbQ+Qz3fsDfKN/a2UT3wf2spTGdfLqg7kCyUR0p9D3ni9WekzL5mZvOlDPnN8UfGoF0nn+Qd562iF41eQ+QbkqYwbxh3hSr7N+j/rtI/l63Df74vv7bwYvsrLqmAbWer78g3IJ85Piv7+Ntsn0mJlb8Zl6zzy5Ct5KncV2TVoS9GkjLr646rmwferKutEkKd7cRsO7LG85/yhybsS5OOsTxv36it50g8SaC8MCAD1GTYZtwWuHwJQ1T0AsTJgqrK85GS4NQThVHpnxxjIwooA2DKCLI7HJY3wsgwFgNoHuCoFNaU4LndvAFXzsbjsdJRHDcB63VN3EwB8GYsjO7oCjBadZIXSlqZSL2crW1rK4wCaHoGtNcsiUQcaA6oSAGCtNai+Ru9begaqOnGJ2xSb8gcAuvQBkF4pcVTbVGQAcDWjjETvCliLRKoRAoD6ab7Kmw0ANr4qU0HLi/FVmdv1BvVSe5Mtsjzc1htAZUe2NDU35UAAvNNt6O0K4J1u2hlnLo97k/V0ADXdBNpdgHd6A5Tl8cMesJuAX7QkQ9bSI9tUijuwjCBjXOEemd80gMtSWrZRgrwEqGKvy+MdMAaicsaFq2mvz0wugWVKVbmZMtLrN4BKoDtABTUvW14dqAwE5SoL+9ZNm6IDywgqSQdQDwZUY7ADmQHTa+DeTHCH3ji6B/fOn160LSOo9xMdKAzIXKPyVQmAqtgDoLt5f8Sj1lD5zcWmg2VL3xtAUme6Li2vKNvYAPg8pPHw5AookYGkR6D48NpQvQIoPvQ7pfJLlWs8AGTqsLyt6VV7NaXG/VYAqkxljeMDAJmctMU0sixUWeNGRW8760UHcsb6QRQAig8AZPrTlvhQZDGpA8uUZL60vNLo7Rl14tZ2SBmXnEtgWYMqQHWg3gT4xO2BZQ07IN8Fbq9h2bgNwDFuD9xdAz9Y2AIcFPfAch52wN0p0QU8VF3MaVzM2Ty6AGDLCOoVZQeWEWS5yJYoWmUHsgPGgKwvGV/xe09XrcG4UQ5ApqHGyXposirbgcyAzFttccZNp6HG9aXXB5yXQGZAZpXGZbvNix8zLlME/eLXlvc48dAVLOPmIoCgAoqx9wagXjh0oN0EuB+/BzwDsgpnfGOPhyyRm7G7ByDLdsY9q9fnYZcAacnLl7m2vJYBoMr2dj6QewOo1+YdSAzIzNg4PuyBukxpB9ydEvWe3wHUu8CyDxuAqnDvAO4umi5+7wDuLppbcFuAH0fugbuLtrs7bbcW/ebXPZcEPrz+Wuj35y9fXn5s9Pb/+ddF+NPLL5Pir/8D);fillColor=none;" parent="1" vertex="1">
                    <mxGeometry x="138.5" y="479" width="769.5" height="89" as="geometry"/>
                </mxCell>
                <mxCell id="116" value="删除文件" style="text;html=1;strokeColor=none;fillColor=none;align=center;verticalAlign=middle;whiteSpace=wrap;rounded=0;" parent="1" vertex="1">
                    <mxGeometry x="510" y="460" width="60" height="30" as="geometry"/>
                </mxCell>
                <mxCell id="117" value="git mv 原来的文件名 新的文件名" style="rounded=1;whiteSpace=wrap;html=1;" parent="1" vertex="1">
                    <mxGeometry x="275" y="890" width="225" height="60" as="geometry"/>
                </mxCell>
                <mxCell id="122" value="" style="edgeStyle=none;html=1;" parent="1" source="120" target="121" edge="1">
                    <mxGeometry relative="1" as="geometry"/>
                </mxCell>
                <mxCell id="123" value="暂存" style="edgeLabel;html=1;align=center;verticalAlign=middle;resizable=0;points=[];" parent="122" vertex="1" connectable="0">
                    <mxGeometry x="-0.0146" y="3" relative="1" as="geometry">
                        <mxPoint y="-1" as="offset"/>
                    </mxGeometry>
                </mxCell>
                <mxCell id="125" value="查看暂存" style="edgeStyle=none;html=1;" parent="1" source="120" target="124" edge="1">
                    <mxGeometry relative="1" as="geometry"/>
                </mxCell>
                <mxCell id="127" style="edgeStyle=none;html=1;exitX=1;exitY=0.75;exitDx=0;exitDy=0;entryX=-0.012;entryY=0.625;entryDx=0;entryDy=0;entryPerimeter=0;" parent="1" source="120" target="126" edge="1">
                    <mxGeometry relative="1" as="geometry"/>
                </mxCell>
                <mxCell id="129" value="取出暂存" style="edgeLabel;html=1;align=center;verticalAlign=middle;resizable=0;points=[];" parent="127" vertex="1" connectable="0">
                    <mxGeometry x="-0.1649" y="-2" relative="1" as="geometry">
                        <mxPoint x="-1" as="offset"/>
                    </mxGeometry>
                </mxCell>
                <mxCell id="120" value="git暂存" style="rounded=1;whiteSpace=wrap;html=1;" parent="1" vertex="1">
                    <mxGeometry x="935" y="1880" width="120" height="60" as="geometry"/>
                </mxCell>
                <mxCell id="121" value="git stash save" style="rounded=1;whiteSpace=wrap;html=1;" parent="1" vertex="1">
                    <mxGeometry x="1140" y="1760" width="120" height="60" as="geometry"/>
                </mxCell>
                <mxCell id="124" value="git stash list" style="rounded=1;whiteSpace=wrap;html=1;" parent="1" vertex="1">
                    <mxGeometry x="1190" y="1870" width="120" height="60" as="geometry"/>
                </mxCell>
                <mxCell id="126" value="git stash pop&lt;br&gt;git stash apply" style="rounded=1;whiteSpace=wrap;html=1;" parent="1" vertex="1">
                    <mxGeometry x="1190" y="1970" width="120" height="60" as="geometry"/>
                </mxCell>
                <mxCell id="132" value="pop会丢失暂存" style="text;html=1;align=center;verticalAlign=middle;resizable=0;points=[];autosize=1;strokeColor=none;fillColor=none;" parent="1" vertex="1">
                    <mxGeometry x="1200" y="1950" width="100" height="20" as="geometry"/>
                </mxCell>
                <mxCell id="133" value="--author='zack'&lt;br&gt;git log 文件名1 文件名2&lt;br&gt;git log --after='2015-01-18 09:18:20' --before='2015-01-18 21:00:00'&amp;nbsp;&lt;br&gt;git log --shortstat --numstat" style="rounded=1;whiteSpace=wrap;html=1;" parent="1" vertex="1">
                    <mxGeometry x="20" y="990" width="410" height="60" as="geometry"/>
                </mxCell>
                <mxCell id="138" value="按j下一行/空格下一页" style="text;html=1;align=center;verticalAlign=middle;resizable=0;points=[];autosize=1;strokeColor=none;fillColor=none;" parent="1" vertex="1">
                    <mxGeometry x="138.5" y="970" width="130" height="20" as="geometry"/>
                </mxCell>
            </root>
        </mxGraphModel>
    </diagram>
</mxfile>
